<mxfile host="app.diagrams.net" modified="2024-01-26T14:14:47.618Z" agent="Mozilla/5.0 (Windows NT 10.0; Win64; x64) AppleWebKit/537.36 (KHTML, like Gecko) Chrome/120.0.0.0 Safari/537.36" etag="X-l52UEyTHzYvVT_dIfJ" version="23.0.2" type="github">
  <diagram name="第 1 页" id="SnYUA65CdviNpR8WSIwn">
    <mxGraphModel dx="670" dy="298" grid="1" gridSize="10" guides="1" tooltips="1" connect="1" arrows="1" fold="1" page="1" pageScale="1" pageWidth="827" pageHeight="1169" math="0" shadow="0">
      <root>
        <mxCell id="0" />
        <mxCell id="1" parent="0" />
        <mxCell id="jjsV2Re7MLpCuUnsC3J1-1" value="数据搜集与导入" style="rounded=1;whiteSpace=wrap;html=1;" vertex="1" parent="1">
          <mxGeometry x="100" y="280" width="120" height="60" as="geometry" />
        </mxCell>
        <mxCell id="jjsV2Re7MLpCuUnsC3J1-2" value="数据清洗和预处理&lt;span style=&quot;white-space: pre;&quot;&gt;&#x9;&lt;/span&gt;" style="rounded=1;whiteSpace=wrap;html=1;" vertex="1" parent="1">
          <mxGeometry x="250" y="280" width="120" height="60" as="geometry" />
        </mxCell>
        <mxCell id="jjsV2Re7MLpCuUnsC3J1-3" value="数据探索和可视化" style="rounded=1;whiteSpace=wrap;html=1;" vertex="1" parent="1">
          <mxGeometry x="397" y="280" width="120" height="60" as="geometry" />
        </mxCell>
        <mxCell id="jjsV2Re7MLpCuUnsC3J1-4" value="模型建立" style="rounded=1;whiteSpace=wrap;html=1;" vertex="1" parent="1">
          <mxGeometry x="548" y="280" width="120" height="60" as="geometry" />
        </mxCell>
        <mxCell id="jjsV2Re7MLpCuUnsC3J1-5" value="模型评估与验证" style="rounded=1;whiteSpace=wrap;html=1;" vertex="1" parent="1">
          <mxGeometry x="696" y="280" width="120" height="60" as="geometry" />
        </mxCell>
        <mxCell id="jjsV2Re7MLpCuUnsC3J1-6" value="模型部署" style="rounded=1;whiteSpace=wrap;html=1;" vertex="1" parent="1">
          <mxGeometry x="845" y="280" width="120" height="60" as="geometry" />
        </mxCell>
        <mxCell id="jjsV2Re7MLpCuUnsC3J1-7" value="" style="endArrow=classic;html=1;rounded=0;exitX=1;exitY=0.5;exitDx=0;exitDy=0;entryX=0;entryY=0.5;entryDx=0;entryDy=0;" edge="1" parent="1" source="jjsV2Re7MLpCuUnsC3J1-1" target="jjsV2Re7MLpCuUnsC3J1-2">
          <mxGeometry width="50" height="50" relative="1" as="geometry">
            <mxPoint x="210" y="440" as="sourcePoint" />
            <mxPoint x="260" y="390" as="targetPoint" />
          </mxGeometry>
        </mxCell>
        <mxCell id="jjsV2Re7MLpCuUnsC3J1-8" value="" style="endArrow=classic;html=1;rounded=0;exitX=1;exitY=0.5;exitDx=0;exitDy=0;entryX=0;entryY=0.5;entryDx=0;entryDy=0;" edge="1" parent="1" source="jjsV2Re7MLpCuUnsC3J1-2" target="jjsV2Re7MLpCuUnsC3J1-3">
          <mxGeometry width="50" height="50" relative="1" as="geometry">
            <mxPoint x="350" y="309.71" as="sourcePoint" />
            <mxPoint x="380" y="309.71" as="targetPoint" />
          </mxGeometry>
        </mxCell>
        <mxCell id="jjsV2Re7MLpCuUnsC3J1-9" value="" style="endArrow=classic;html=1;rounded=0;exitX=0.993;exitY=0.494;exitDx=0;exitDy=0;entryX=0;entryY=0.5;entryDx=0;entryDy=0;exitPerimeter=0;" edge="1" parent="1" source="jjsV2Re7MLpCuUnsC3J1-3" target="jjsV2Re7MLpCuUnsC3J1-4">
          <mxGeometry width="50" height="50" relative="1" as="geometry">
            <mxPoint x="490" y="309.71" as="sourcePoint" />
            <mxPoint x="520" y="309.71" as="targetPoint" />
          </mxGeometry>
        </mxCell>
        <mxCell id="jjsV2Re7MLpCuUnsC3J1-10" value="" style="endArrow=classic;html=1;rounded=0;entryX=0;entryY=0.5;entryDx=0;entryDy=0;exitX=1;exitY=0.5;exitDx=0;exitDy=0;" edge="1" parent="1" source="jjsV2Re7MLpCuUnsC3J1-4" target="jjsV2Re7MLpCuUnsC3J1-5">
          <mxGeometry width="50" height="50" relative="1" as="geometry">
            <mxPoint x="670" y="310" as="sourcePoint" />
            <mxPoint x="690" y="309.92" as="targetPoint" />
          </mxGeometry>
        </mxCell>
        <mxCell id="jjsV2Re7MLpCuUnsC3J1-11" value="" style="endArrow=classic;html=1;rounded=0;exitX=1;exitY=0.5;exitDx=0;exitDy=0;" edge="1" parent="1" source="jjsV2Re7MLpCuUnsC3J1-5" target="jjsV2Re7MLpCuUnsC3J1-6">
          <mxGeometry width="50" height="50" relative="1" as="geometry">
            <mxPoint x="770" y="309.71" as="sourcePoint" />
            <mxPoint x="800" y="309.71" as="targetPoint" />
          </mxGeometry>
        </mxCell>
        <mxCell id="jjsV2Re7MLpCuUnsC3J1-12" value="建模选项卡" style="ellipse;whiteSpace=wrap;html=1;" vertex="1" parent="1">
          <mxGeometry x="570.5" y="380" width="75" height="50" as="geometry" />
        </mxCell>
        <mxCell id="jjsV2Re7MLpCuUnsC3J1-13" value="源选项卡" style="ellipse;whiteSpace=wrap;html=1;" vertex="1" parent="1">
          <mxGeometry x="122.5" y="380" width="75" height="50" as="geometry" />
        </mxCell>
        <mxCell id="jjsV2Re7MLpCuUnsC3J1-14" value="字段选项卡" style="ellipse;whiteSpace=wrap;html=1;" vertex="1" parent="1">
          <mxGeometry x="272.5" y="380" width="75" height="50" as="geometry" />
        </mxCell>
        <mxCell id="jjsV2Re7MLpCuUnsC3J1-15" value="图形选项卡" style="ellipse;whiteSpace=wrap;html=1;" vertex="1" parent="1">
          <mxGeometry x="419.5" y="380" width="75" height="50" as="geometry" />
        </mxCell>
        <mxCell id="jjsV2Re7MLpCuUnsC3J1-16" value="输出选项卡" style="ellipse;whiteSpace=wrap;html=1;" vertex="1" parent="1">
          <mxGeometry x="718.5" y="380" width="75" height="50" as="geometry" />
        </mxCell>
        <mxCell id="jjsV2Re7MLpCuUnsC3J1-17" value="" style="endArrow=classic;html=1;rounded=0;exitX=0.5;exitY=0;exitDx=0;exitDy=0;entryX=0.5;entryY=1;entryDx=0;entryDy=0;" edge="1" parent="1" source="jjsV2Re7MLpCuUnsC3J1-13" target="jjsV2Re7MLpCuUnsC3J1-1">
          <mxGeometry width="50" height="50" relative="1" as="geometry">
            <mxPoint x="210" y="470" as="sourcePoint" />
            <mxPoint x="260" y="420" as="targetPoint" />
          </mxGeometry>
        </mxCell>
        <mxCell id="jjsV2Re7MLpCuUnsC3J1-19" value="" style="endArrow=classic;html=1;rounded=0;exitX=0.5;exitY=0;exitDx=0;exitDy=0;entryX=0.5;entryY=1;entryDx=0;entryDy=0;" edge="1" parent="1" source="jjsV2Re7MLpCuUnsC3J1-14" target="jjsV2Re7MLpCuUnsC3J1-2">
          <mxGeometry width="50" height="50" relative="1" as="geometry">
            <mxPoint x="360" y="400" as="sourcePoint" />
            <mxPoint x="360" y="360" as="targetPoint" />
          </mxGeometry>
        </mxCell>
        <mxCell id="jjsV2Re7MLpCuUnsC3J1-20" value="" style="endArrow=classic;html=1;rounded=0;exitX=0.5;exitY=0;exitDx=0;exitDy=0;entryX=0.5;entryY=1;entryDx=0;entryDy=0;" edge="1" parent="1" source="jjsV2Re7MLpCuUnsC3J1-15" target="jjsV2Re7MLpCuUnsC3J1-3">
          <mxGeometry width="50" height="50" relative="1" as="geometry">
            <mxPoint x="413" y="400" as="sourcePoint" />
            <mxPoint x="413" y="360" as="targetPoint" />
          </mxGeometry>
        </mxCell>
        <mxCell id="jjsV2Re7MLpCuUnsC3J1-21" value="" style="endArrow=classic;html=1;rounded=0;exitX=0.5;exitY=0;exitDx=0;exitDy=0;entryX=0.5;entryY=1;entryDx=0;entryDy=0;" edge="1" parent="1" source="jjsV2Re7MLpCuUnsC3J1-12" target="jjsV2Re7MLpCuUnsC3J1-4">
          <mxGeometry width="50" height="50" relative="1" as="geometry">
            <mxPoint x="660" y="390" as="sourcePoint" />
            <mxPoint x="660" y="350" as="targetPoint" />
          </mxGeometry>
        </mxCell>
        <mxCell id="jjsV2Re7MLpCuUnsC3J1-22" value="" style="endArrow=classic;html=1;rounded=0;entryX=0.5;entryY=1;entryDx=0;entryDy=0;" edge="1" parent="1" source="jjsV2Re7MLpCuUnsC3J1-16" target="jjsV2Re7MLpCuUnsC3J1-5">
          <mxGeometry width="50" height="50" relative="1" as="geometry">
            <mxPoint x="816" y="400" as="sourcePoint" />
            <mxPoint x="816" y="360" as="targetPoint" />
          </mxGeometry>
        </mxCell>
      </root>
    </mxGraphModel>
  </diagram>
</mxfile>
